<svg xmlns="http://www.w3.org/2000/svg" width="23.133" height="23.133" viewBox="0 0 23.133 23.133">
  <path id="info-circle" d="M19.567,8A11.567,11.567,0,1,0,31.133,19.567,11.568,11.568,0,0,0,19.567,8Zm0,5.13a1.959,1.959,0,1,1-1.959,1.959A1.959,1.959,0,0,1,19.567,13.13Zm2.612,11.847a.56.56,0,0,1-.56.56h-4.1a.56.56,0,0,1-.56-.56V23.858a.56.56,0,0,1,.56-.56h.56V20.313h-.56a.56.56,0,0,1-.56-.56V18.634a.56.56,0,0,1,.56-.56H20.5a.56.56,0,0,1,.56.56V23.3h.56a.56.56,0,0,1,.56.56Z" transform="translate(-8 -8)"/>
</svg>
